<svg width="100" height="100" xmlns="http://www.w3.org/2000/svg">
 <defs>
  <style>.a{fill:#716f6e;}</style>
 </defs>
 <g>
  <title>background</title>
  <rect fill="none" id="canvas_background" height="102" width="102" y="-1" x="-1"/>
 </g>
 <g>
  <title>Layer 1</title>
  <ellipse ry="35" rx="35" id="svg_14" cy="50" cx="50" stroke="#e10915" fill="#ffffff"/>
  <defs>
   <style>.a{fill:#716f6e;}</style>
  </defs>
  <g id="svg_26">
   <g transform="matrix(1.044830052031074,0,0,1.044830052031074,40.07530172737221,79.54412197358155) " id="svg_18">
    <path id="svg_19" d="m18.81721,-36.53608l-19.115,0a0.531,0.531 0 1 0 0,1.062l19.115,0a0.531,0.531 0 1 0 0,-1.062z" class="a"/>
    <path id="svg_20" d="m-4.56479,-16.20007a0.531,0.531 0 0 0 0.531,-0.531l0,-27.633a1.275,1.275 0 0 1 1.269,-1.274l24.04,0a1.275,1.275 0 0 1 1.274,1.274l0,2.6a0.531,0.531 0 1 0 1.062,0l0,-2.6a2.339,2.339 0 0 0 -2.332,-2.336l-24.044,0a2.339,2.339 0 0 0 -2.332,2.336l0,27.628a0.531,0.531 0 0 0 0.532,0.536z" class="a"/>
    <path id="svg_21" d="m18.81721,-32.47307l-19.115,0a0.531,0.531 0 1 0 0,1.062l19.115,0a0.531,0.531 0 1 0 0,-1.062z" class="a"/>
    <path id="svg_22" d="m4.03821,-20.23607c-1.013,-0.55 -3.108,0.387 -3.866,1.06a0.531,0.531 0 0 0 0.706,0.794a4.819,4.819 0 0 1 1.517,-0.79c0.74,-0.241 1.073,-0.169 1.137,-0.13a0.407,0.407 0 0 1 0,0.145a1.088,1.088 0 0 0 0.371,1.173a0.9,0.9 0 0 0 0.5,0.144c0.667,0 1.591,-0.581 2.929,-1.422c0.215,-0.135 0.435,-0.274 0.659,-0.412a0.531,0.531 0 0 0 -0.559,-0.9c-0.226,0.14 -0.448,0.28 -0.665,0.416a14.253,14.253 0 0 1 -2.2,1.23q0,-0.03 0.009,-0.067a1.127,1.127 0 0 0 -0.538,-1.241z" class="a"/>
    <path id="svg_23" d="m30.73621,-34.21607l-2.229,-2.229a1.045,1.045 0 0 0 -1.478,0l-0.815,0.815l-0.111,-0.111a1.084,1.084 0 0 0 -1.532,0l-0.958,0.958l0,-4.453a0.531,0.531 0 0 0 -1.062,0l0,5.515l-5.312,5.312l-17.537,0a0.531,0.531 0 0 0 0,1.062l16.478,0l-3.656,3.658a1.083,1.083 0 0 0 -0.076,1.447a9.02,9.02 0 0 0 -1.477,2.332a2.967,2.967 0 0 0 -0.127,2.61l-0.43,0.43a0.531,0.531 0 0 0 0.751,0.751l0.43,-0.43a2.11,2.11 0 0 0 1.018,0.24a4.176,4.176 0 0 0 1.591,-0.367a9.02,9.02 0 0 0 2.332,-1.477a1.083,1.083 0 0 0 1.447,-0.076l4.569,-4.569l0,4.426a3.5,3.5 0 0 1 -2.28,0.838l-1.407,0a2.339,2.339 0 0 0 -2.336,2.336l0,1.409a3.5,3.5 0 0 1 -0.838,2.28l-18.455,0a1.275,1.275 0 0 1 -1.271,-1.28l0,-1.414a0.531,0.531 0 0 0 -1.062,0l0,1.414a2.339,2.339 0 0 0 2.333,2.338l19.848,0a6.539,6.539 0 0 0 6.531,-6.531l0,-6.881l4.469,-4.469l0,0l1.949,-1.949a1.084,1.084 0 0 0 0,-1.532l-0.11,-0.111l0.815,-0.815a1.047,1.047 0 0 0 -0.002,-1.477zm-13.654,22.7l-0.1,0a4.564,4.564 0 0 0 0.606,-2.28l0,-1.409a1.275,1.275 0 0 1 1.274,-1.274l1.409,0a4.564,4.564 0 0 0 2.28,-0.606l0,0.1l0,0a5.476,5.476 0 0 1 -5.467,5.472l-0.002,-0.003zm5.916,-21.153l1.164,1.164l-4.871,4.871l-1.164,-1.164l4.871,-4.871zm-11.083,15.046c-0.459,-0.459 -0.174,-1.376 0.036,-1.881a7.99,7.99 0 0 1 1.245,-1.983l2.582,2.582c-1.234,1.049 -3.157,1.988 -3.863,1.282zm5.318,-1.36a0.019,0.019 0 0 1 -0.015,0.006a0.019,0.019 0 0 1 -0.015,-0.006l-3.928,-3.928a0.021,0.021 0 0 1 0,-0.03l4.1,-4.1l1.241,1.241a0.955,0.955 0 0 0 1.348,0l4.948,-4.948l2.043,2.043l-9.722,9.722zm12.049,-12.049l-1.573,1.573l-3.958,-3.958l1.573,-1.573a0.021,0.021 0 0 1 0.015,-0.006a0.021,0.021 0 0 1 0.015,0.006l3.928,3.928a0.021,0.021 0 0 1 0,0.03zm-0.11,-1.642l-2.206,-2.205l0.8,-0.8l2.205,2.205l-0.799,0.8z" class="a"/>
    <path id="svg_24" d="m6.92321,-16.23808l-5.738,0a0.531,0.531 0 1 0 0,1.062l5.738,0a0.531,0.531 0 1 0 0,-1.062z" class="a"/>
    <path id="svg_25" d="m-0.29779,-39.53708l10.151,0a0.531,0.531 0 0 0 0,-1.062l-10.151,0a0.531,0.531 0 0 0 0,1.062z" class="a"/>
   </g>
  </g>
 </g>
</svg>