<svg width="100" height="100" xmlns="http://www.w3.org/2000/svg">
 <defs>
  <style>.a{fill:#716f6e;}</style>
 </defs>
 <g>
  <title>background</title>
  <rect fill="none" id="canvas_background" height="102" width="102" y="-1" x="-1"/>
 </g>
 <g>
  <title>Layer 1</title>
  <ellipse ry="35" rx="35" id="svg_14" cy="50" cx="50" stroke="#e10915" fill="#ffffff"/>
  <defs>
   <style>.a{fill:#716f6e;}</style>
  </defs>
  <defs>
   <style>.a{fill:#716f6e;}</style>
  </defs>
  <g stroke="null" id="svg_36">
   <path stroke="null" id="svg_30" d="m55.35798,30.21711a0.82421,0.82421 0 0 0 -0.82421,0.82421l0,13.1886a0.82421,0.82421 0 0 0 0.0828,0.36815l1.43568,2.8688l-1.38472,2.07517a0.8293,0.8293 0 0 0 -0.13376,0.45733l0,12.36439a0.82421,0.82421 0 0 0 0.82421,0.82421l11.54018,0a0.82421,0.82421 0 0 0 0.82421,-0.82421l0,-12.36439a0.8293,0.8293 0 0 0 -0.13885,-0.45733l-1.38345,-2.07517l1.4395,-2.8688a0.82421,0.82421 0 0 0 0.0828,-0.36815l0,-13.1886a0.82421,0.82421 0 0 0 -0.82421,-0.82421l-11.54018,0zm10.71597,13.8179l-1.56689,3.12486a0.82421,0.82421 0 0 0 0.05223,0.82421l1.51466,2.2637l0,11.29305l-9.89176,0l0,-11.29432l1.50956,-2.26498a0.82421,0.82421 0 0 0 0.05223,-0.82421l-1.56179,-3.12231l0,-12.16948l9.89176,0l0,12.16948z" class="a"/>
   <path stroke="null" id="svg_31" d="m58.65481,45.05539l4.94525,0a0.82421,0.82421 0 0 0 0.82421,-0.82421l0,-9.89176a0.82421,0.82421 0 0 0 -0.82421,-0.82421l-4.94525,0a0.82421,0.82421 0 0 0 -0.82421,0.82421l0,9.89176a0.82421,0.82421 0 0 0 0.82421,0.82421zm0.82421,-9.89176l3.29683,0l0,1.64842l-3.29683,0l0,-1.64842zm0,3.29683l3.29683,0l0,1.64842l-3.29683,0l0,-1.64842zm0,3.29683l3.29683,0l0,1.64842l-3.29683,0l0,-1.64842z" class="a"/>
   <path stroke="null" id="svg_32" d="m58.65481,59.8924l4.94525,0a0.82421,0.82421 0 0 0 0.82421,-0.82421l0,-6.59493a0.82421,0.82421 0 0 0 -0.82421,-0.82421l-4.94525,0a0.82421,0.82421 0 0 0 -0.82421,0.82421l0,6.59366a0.82421,0.82421 0 0 0 0.82421,0.82548zm0.82421,-6.59366l3.29683,0l0,1.64842l-3.29683,0l0,-1.64842zm0,3.29683l3.29683,0l0,1.64842l-3.29683,0l0,-1.64842z" class="a"/>
   <rect stroke="null" transform="matrix(1.2738911679171634,0,0,1.2738911679171634,-32.887981375423614,129.14970542741483) " id="svg_33" x="71.60276" y="-63.55173" height="1.321" width="1.321" class="a"/>
   <rect stroke="null" transform="matrix(1.2738911679171634,0,0,1.2738911679171634,-32.887981375423614,129.14970542741483) " id="svg_34" x="74.24376" y="-63.55173" height="1.321" width="1.321" class="a"/>
   <path stroke="null" id="svg_35" d="m68.47906,25.77123a0.82421,0.82421 0 0 0 -0.75669,-0.49937l-2.47262,0a0.82421,0.82421 0 0 0 -0.82421,0.82421l0,0.82421l-6.59493,0l0,-0.82421a0.82421,0.82421 0 0 0 -0.82421,-0.82421l-2.47262,0a0.82421,0.82421 0 0 0 -0.75797,0.49937l-2.47262,5.77073a0.81147,0.81147 0 0 0 -0.06624,0.32484l0,30.49823a4.12613,4.12613 0 0 0 4.12104,4.12104l1.64842,0l0,4.12104a0.82421,0.82421 0 0 0 0.82421,0.82421l0.82421,0l0,0.82421a0.82421,0.82421 0 0 1 -0.82421,0.82421l-4.12104,0a0.82421,0.82421 0 0 1 -0.82421,-0.82421l0,-2.47262a2.47262,2.47262 0 0 0 -4.94525,0l0,2.47262a0.82421,0.82421 0 0 1 -0.82421,0.82421l-0.82421,0a2.47262,2.47262 0 0 1 -2.47262,-2.47262l0,-2.47262a0.82421,0.82421 0 0 0 0.81656,-0.70701l0.82421,-5.76945a0.79873,0.79873 0 0 0 0.00764,-0.1172l0,-16.4867l0.82421,0a0.82421,0.82421 0 0 0 0.82421,-0.82421l0,-3.29683a0.82421,0.82421 0 0 0 -0.82421,-0.82421l-0.92102,0l-0.73504,-5.87264a0.82421,0.82421 0 0 0 -0.81784,-0.7223l0,-3.29683l-1.64842,0l0,3.2981a0.82421,0.82421 0 0 0 -0.81784,0.7223l-0.73504,5.87264l-0.92102,0a0.82421,0.82421 0 0 0 -0.82421,0.82421l0,3.29683a0.82421,0.82421 0 0 0 0.82421,0.82421l0.82421,0l0,16.48543a0.79873,0.79873 0 0 0 0.00764,0.1172l0.82421,5.76945a0.82421,0.82421 0 0 0 0.81656,0.70701l0,2.47262a4.07645,4.07645 0 0 0 0.84586,2.47262l-6.61404,0a2.47262,2.47262 0 0 1 -2.47262,-2.47262l0,-6.59366a0.82421,0.82421 0 0 0 0.81656,-0.70701l0.82421,-5.76945a0.79873,0.79873 0 0 0 0.00764,-0.1172l0,-16.4867l0.82421,0a0.82421,0.82421 0 0 0 0.82421,-0.82421l0,-3.29683a0.82421,0.82421 0 0 0 -0.82421,-0.82421l-0.9223,0l-0.73376,-5.87519a0.82421,0.82421 0 0 0 -0.81784,-0.7223l0,-3.29428l-1.64842,0l0,3.29683a0.82421,0.82421 0 0 0 -0.81784,0.7223l-0.73504,5.87264l-0.91975,0a0.82421,0.82421 0 0 0 -0.82421,0.82421l0,3.29683a0.82421,0.82421 0 0 0 0.82421,0.82421l0.82421,0l0,16.48543a0.79873,0.79873 0 0 0 0.00764,0.1172l0.82421,5.76945a0.82421,0.82421 0 0 0 0.81656,0.70701l0,6.59366a4.12613,4.12613 0 0 0 4.12104,4.12104l10.71597,0a2.47262,2.47262 0 0 0 2.47262,-2.47262l0,-2.47135a0.82421,0.82421 0 1 1 1.64842,0l0,2.47262a2.47262,2.47262 0 0 0 2.47262,2.47262l7.41914,0a2.47262,2.47262 0 0 0 2.47262,-2.47262l0,-0.82421l0.82421,0a0.82421,0.82421 0 0 0 0.82421,-0.82421l0,-4.12104l1.64842,0a4.12613,4.12613 0 0 0 4.12231,-4.12104l0,-30.4995a0.81147,0.81147 0 0 0 -0.06624,-0.32484l-2.4739,-5.76945zm-35.47277,5.27009l0.19236,0l0.61784,4.94525l-1.42931,0l0.61911,-4.94525zm-2.37708,8.24335l0,-1.64842l4.94525,0l0,1.64842l-4.94525,0zm2.58218,23.08036l-0.21911,0l-0.71465,-5.00384l0,-16.4332l1.64842,0l0,16.4332l-0.71465,5.00384zm9.68157,-27.2014l0.19236,0l0.61784,4.94525l-1.42421,0l0.61402,-4.94525zm-2.37581,8.24335l0,-1.64969l4.94525,0l0,1.64842l-4.94525,0.00127zm2.36307,23.08036l-0.71465,-5.00384l0,-16.4332l1.64842,0l0,16.4332l-0.71465,5.00384l-0.21911,0zm19.0676,5.76945a0.82421,0.82421 0 0 1 -0.82421,0.82421l-0.9758,0a2.4446,2.4446 0 0 0 0.15159,-0.82421l0,-0.82421l1.64842,0l0,0.82421zm-3.29683,-2.47262l0,-3.2981l1.64842,0l0,3.29683l-1.64842,0.00127zm4.94525,0l-1.64459,0l0,-3.2981l1.64842,0l-0.00382,3.2981zm5.76945,-7.41914a2.47262,2.47262 0 0 1 -2.47262,2.47262l-11.53508,0a2.47262,2.47262 0 0 1 -2.47262,-2.47262l0,-30.33007l2.19237,-5.11467l1.10574,0l0,0.82421a0.82421,0.82421 0 0 0 0.82293,0.82421l8.24335,0a0.82421,0.82421 0 0 0 0.82421,-0.82421l0,-0.82421l1.10574,0l2.19237,5.11467l-0.00637,30.33007z" class="a"/>
  </g>
 </g>
</svg>