<svg width="70" height="70" xmlns="http://www.w3.org/2000/svg">
 <!-- Created with Method Draw - http://github.com/duopixel/Method-Draw/ -->

 <g>
  <title>background</title>
  <rect fill="#fff" id="canvas_background" height="72" width="72" y="-1" x="-1"/>
  <g display="none" overflow="visible" y="0" x="0" height="100%" width="100%" id="canvasGrid">
   <rect fill="url(#gridpattern)" stroke-width="0" y="0" x="0" height="100%" width="100%"/>
  </g>
 </g>
 <g>
  <title>Layer 1</title>
  <defs>
   <style>.a{fill:#716f6e;}</style>
  </defs>
  <ellipse ry="33" rx="33" id="svg_12" cy="35" cx="35" stroke="#e10915" fill="#fff"/>
  <defs>
   <style>.a{fill:#716f6e;}</style>
  </defs>
  <g stroke="null" id="svg_28">
   <g stroke="null" transform="matrix(1.1426625324287125,0,0,1.1426625324287125,0.9638867688363462,6.9636748036236895) " id="svg_16">
    <path stroke="null" id="svg_17" d="m31.57417,24.20202a0.6,0.6 0 0 0 -0.5,-0.265l-1.685,0l0.957,-2.392a0.6,0.6 0 0 0 -1.118,-0.447l-1.287,3.218a0.6,0.6 0 0 0 0.559,0.826l1.685,0l-0.957,2.392a0.6,0.6 0 1 0 1.118,0.447l1.287,-3.218a0.6,0.6 0 0 0 -0.059,-0.561z" class="a"/>
   </g>
   <g stroke="null" transform="matrix(1.1426625324287125,0,0,1.1426625324287125,0.9638867688363462,6.9636748036236895) " id="svg_18">
    <path stroke="null" id="svg_19" d="m47.02216,7.43302a11.474,11.474 0 0 0 -8.028,-3.451a11.291,11.291 0 0 0 -8.148,3.311a12.034,12.034 0 0 0 -3.592,8.521l0,2.326l-1.972,0a1.892,1.892 0 0 0 -1.889,1.889l0,9.011a1.892,1.892 0 0 0 1.889,1.889l1.972,0l0,2.616a6.493,6.493 0 0 1 -2.122,4.79a6.422,6.422 0 0 1 -4.982,1.658a6.638,6.638 0 0 1 -5.851,-6.651a0.6,0.6 0 1 0 -1.2,0a8.031,8.031 0 0 0 1.971,5.275a7.515,7.515 0 0 0 4.972,2.579q0.377,0.036 0.75,0.035a7.594,7.594 0 0 0 5.156,-2a7.7,7.7 0 0 0 2.515,-5.681l0,-2.617l2.657,0l0,2.326a10.822,10.822 0 0 1 -3.232,7.662a10.1,10.1 0 0 1 -7.283,2.965a10.352,10.352 0 0 1 -10.168,-10.337l0,-8.367a0.041,0.041 0 0 1 0.041,-0.041l2.575,0a0.041,0.041 0 0 1 0.041,0.041l0,5.551a0.6,0.6 0 1 0 1.2,0l0,-5.551a1.247,1.247 0 0 0 -1.246,-1.246l-0.68,0l0,-3.26a0.6,0.6 0 0 0 -1.2,0l0,3.26l-0.689,0a1.247,1.247 0 0 0 -1.249,1.246l0,8.367a11.557,11.557 0 0 0 11.351,11.542l0.188,0a11.3,11.3 0 0 0 7.961,-3.309a12.034,12.034 0 0 0 3.592,-8.521l0,-2.328l1.972,0a1.892,1.892 0 0 0 1.889,-1.889l0,-9.011a1.892,1.892 0 0 0 -1.889,-1.889l-1.973,0l0,-2.616a6.493,6.493 0 0 1 2.122,-4.79a6.423,6.423 0 0 1 4.982,-1.656a6.638,6.638 0 0 1 5.852,6.656a0.6,0.6 0 1 0 1.2,0a8.031,8.031 0 0 0 -1.971,-5.275a7.515,7.515 0 0 0 -4.969,-2.581a7.612,7.612 0 0 0 -5.907,1.965a7.7,7.7 0 0 0 -2.515,5.681l0,2.616l-2.656,0l0,-2.327a10.822,10.822 0 0 1 3.232,-7.662a10.1,10.1 0 0 1 7.283,-2.965a10.352,10.352 0 0 1 10.164,10.338l0,8.367a0.041,0.041 0 0 1 -0.041,0.041l-2.575,0a0.041,0.041 0 0 1 -0.041,-0.041l0,-5.552a0.6,0.6 0 0 0 -1.2,0l0,5.551a1.247,1.247 0 0 0 1.246,1.246l0.685,0l0,3.26a0.6,0.6 0 0 0 1.2,0l0,-3.26l0.685,0a1.247,1.247 0 0 0 1.246,-1.246l0,-8.366a11.472,11.472 0 0 0 -3.321,-8.095zm-12.729,11.915a0.686,0.686 0 0 1 0.685,0.685l0,9.011a0.686,0.686 0 0 1 -0.685,0.685l-9.011,0a0.686,0.686 0 0 1 -0.685,-0.685l0,-9.011a0.686,0.686 0 0 1 0.685,-0.685l9.011,0z" class="a"/>
   </g>
   <g stroke="null" transform="matrix(1.1426625324287125,0,0,1.1426625324287125,0.9638867688363462,6.9636748036236895) " id="svg_20">
    <path stroke="null" id="svg_21" d="m11.01816,18.47602l-0.644,-1.287a0.6,0.6 0 1 0 -1.077,0.539l0.644,1.287a0.6,0.6 0 0 0 1.077,-0.539z" class="a"/>
   </g>
   <g stroke="null" transform="matrix(1.1426625324287125,0,0,1.1426625324287125,0.9638867688363462,6.9636748036236895) " id="svg_22">
    <path stroke="null" id="svg_23" d="m13.96616,16.92002a0.6,0.6 0 0 0 -0.808,0.269l-0.644,1.287a0.6,0.6 0 1 0 1.077,0.539l0.644,-1.287a0.6,0.6 0 0 0 -0.269,-0.808z" class="a"/>
   </g>
   <g stroke="null" transform="matrix(1.1426625324287125,0,0,1.1426625324287125,0.9638867688363462,6.9636748036236895) " id="svg_24">
    <path stroke="null" id="svg_25" d="m50.27915,31.34902l-0.644,-1.287a0.6,0.6 0 0 0 -1.077,0.539l0.644,1.287a0.6,0.6 0 0 0 1.077,-0.539z" class="a"/>
   </g>
   <g stroke="null" transform="matrix(1.1426625324287125,0,0,1.1426625324287125,0.9638867688363462,6.9636748036236895) " id="svg_26">
    <path stroke="null" id="svg_27" d="m46.79217,29.79302a0.6,0.6 0 0 0 -0.808,0.269l-0.644,1.287a0.6,0.6 0 1 0 1.077,0.539l0.644,-1.287a0.6,0.6 0 0 0 -0.269,-0.808z" class="a"/>
   </g>
  </g>
 </g>
</svg>