<svg width="70" height="70" xmlns="http://www.w3.org/2000/svg">
 <!-- Created with Method Draw - http://github.com/duopixel/Method-Draw/ -->

 <g>
  <title>background</title>
  <rect fill="#fff" id="canvas_background" height="72" width="72" y="-1" x="-1"/>
  <g display="none" overflow="visible" y="0" x="0" height="100%" width="100%" id="canvasGrid">
   <rect fill="url(#gridpattern)" stroke-width="0" y="0" x="0" height="100%" width="100%"/>
  </g>
 </g>
 <g>
  <title>Layer 1</title>
  <defs>
   <style>.a{fill:#716f6e;}</style>
  </defs>
  <ellipse stroke="#e10915" ry="33" rx="33" id="svg_12" cy="35" cx="35" fill="#fff"/>
  <defs>
   <style>.a{fill:#716f6e;}</style>
  </defs>
  <defs>
   <style>.a{fill:#716f6e;}</style>
  </defs>
  <g stroke="null" id="svg_33">
   <path stroke="null" id="svg_32" d="m16.25674,20.25419a3.99684,3.99684 0 1 0 -3.99684,-3.99806a4.00171,4.00171 0 0 0 3.99684,3.99806zm0,-6.66262a2.66456,2.66456 0 1 1 -2.66456,2.66456a2.66821,2.66821 0 0 1 2.66456,-2.66456zm18.74204,26.7479a7.82319,7.82319 0 0 0 -5.56781,2.30653a7.91574,7.91574 0 0 0 -1.21781,1.5661l-8.12521,0a6.49578,6.49578 0 0 1 -5.20125,-10.38911a6.54936,6.54936 0 0 1 3.28808,-2.31383a1.57219,1.57219 0 0 0 1.10455,-1.51982a9.41852,9.41852 0 0 1 2.23468,-6.08903a0.66614,0.66614 0 1 0 -1.01565,-0.86221a10.7581,10.7581 0 0 0 -2.55739,6.95976a0.24356,0.24356 0 0 1 -0.16562,0.24356a7.89139,7.89139 0 0 0 -3.95787,2.78999a7.82928,7.82928 0 0 0 6.27049,12.51175l7.49925,0a7.87799,7.87799 0 1 0 7.41157,-5.20491l0,0.00122zm-6.54206,7.87434a6.54206,6.54206 0 0 1 10.67286,-5.07338l-9.20418,9.20418a6.49334,6.49334 0 0 1 -1.46867,-4.1308zm11.1685,4.62767a6.5518,6.5518 0 0 1 -8.75725,0.44694l9.20418,-9.20418a6.54327,6.54327 0 0 1 -0.44694,8.75725zm6.47264,-11.82734a0.66614,0.66614 0 0 0 -0.66614,-0.65762l-0.00852,0c-0.4579,0 -0.94258,0.00974 -1.36273,0.01096c0.27766,-0.37265 0.64544,-0.88047 1.12647,-1.5661a3.99684,3.99684 0 0 0 0.65031,-1.34933a1.96554,1.96554 0 0 0 -1.94118,-2.33332a1.98746,1.98746 0 0 0 -1.94849,1.6002a0.66614,0.66614 0 1 0 1.30792,0.25696a0.65153,0.65153 0 0 1 0.63935,-0.52487a0.6223,0.6223 0 0 1 0.6357,0.73068a2.82896,2.82896 0 0 1 -0.43719,0.85246c-0.81471,1.16422 -1.30062,1.79992 -1.56245,2.14212c-0.33003,0.43232 -0.49565,0.64909 -0.38361,1.01322a0.68928,0.68928 0 0 0 0.44815,0.45424a4.26963,4.26963 0 0 0 1.18493,0.0548c0.39335,0 0.92797,0 1.65743,-0.0134a0.66614,0.66614 0 0 0 0.65762,-0.67466l0.00244,0.00365zm7.64417,8.73167a3.99684,3.99684 0 1 0 3.99684,3.99684a4.00171,4.00171 0 0 0 -3.99684,-3.99684zm0,6.66262a2.66456,2.66456 0 1 1 2.66456,-2.66456a2.66821,2.66821 0 0 1 -2.66456,2.66213l0,0.00244zm3.99806,-18.69698a7.82928,7.82928 0 0 0 -7.82806,-7.82806c-0.1644,0 -0.39092,0.02314 -0.45546,-0.16684a9.35154,9.35154 0 0 0 -11.74453,-5.87105a0.24356,0.24356 0 0 1 -0.2667,-0.09499a10.7508,10.7508 0 0 0 -14.45902,-2.87281a0.66614,0.66614 0 0 0 0.70755,1.12404a9.41852,9.41852 0 0 1 12.66519,2.51842a1.5661,1.5661 0 0 0 1.76338,0.58698a8.01926,8.01926 0 0 1 10.06883,5.03807a1.76704,1.76704 0 0 0 1.71711,1.06923a6.49578,6.49578 0 1 1 0,12.99156l-4.76162,0a0.66614,0.66614 0 1 0 0,1.33228l4.76406,0a7.8378,7.8378 0 0 0 7.82928,-7.82684zm-29.47092,-6.37156a3.0226,3.0226 0 0 1 1.70493,0.51879a0.66614,0.66614 0 1 0 0.7453,-1.10455a4.37193,4.37193 0 1 0 -2.44536,7.99734a3.61689,3.61689 0 0 0 2.84358,-1.28357a0.66614,0.66614 0 0 0 -1.02052,-0.85246a2.27243,2.27243 0 0 1 -1.82671,0.80862a3.04452,3.04452 0 1 1 0,-6.07929l-0.00122,-0.00487zm12.64692,3.04452a4.37193,4.37193 0 1 0 -4.37193,4.37193a4.3768,4.3768 0 0 0 4.37193,-4.37193zm-7.41157,0a3.04452,3.04452 0 1 1 3.04452,3.04452a3.04452,3.04452 0 0 1 -3.04452,-3.04452z" class="a"/>
  </g>
 </g>
</svg>