<svg width="70" height="70" xmlns="http://www.w3.org/2000/svg">
 <!-- Created with Method Draw - http://github.com/duopixel/Method-Draw/ -->

 <g>
  <title>background</title>
  <rect fill="#fff" id="canvas_background" height="72" width="72" y="-1" x="-1"/>
  <g display="none" overflow="visible" y="0" x="0" height="100%" width="100%" id="canvasGrid">
   <rect fill="url(#gridpattern)" stroke-width="0" y="0" x="0" height="100%" width="100%"/>
  </g>
 </g>
 <g>
  <title>Layer 1</title>
  <defs>
   <style>.a{fill:#716f6e;}</style>
  </defs>
  <ellipse stroke="#e10915" ry="33" rx="33" id="svg_12" cy="35" cx="35" fill="#fff"/>
  <defs>
   <style>.a{fill:#716f6e;}</style>
  </defs>
  <defs>
   <style>.a{fill:#716f6e;}</style>
  </defs>
  <defs>
   <style>.a{fill:#716f6e;}</style>
  </defs>
  <g stroke="null" id="svg_41">
   <path stroke="null" id="svg_37" d="m54.4474,15.5526a27.50231,27.50231 0 0 0 -38.89479,38.89479a27.50231,27.50231 0 0 0 38.89479,-38.89479zm-1.51867,37.37611a25.35166,25.35166 0 0 1 -35.85623,-35.85623a25.35166,25.35166 0 0 1 35.85623,35.85623z" class="a"/>
   <path stroke="null" id="svg_38" d="m44.47534,46.14563l-16.03826,-16.03341l-9.68822,-9.68822a1.07472,1.07472 0 0 0 -1.59267,0.08127a22.99117,22.99117 0 0 0 16.73938,37.46224q0.55798,0.02669 1.11475,0.02669a22.92567,22.92567 0 0 0 14.48684,-5.14918a1.07472,1.07472 0 0 0 0.08127,-1.59267l-5.10308,-5.10672zm-2.24647,0.79209a10.94003,10.94003 0 0 1 -2.80566,2.03784l-0.04488,-0.03882c-3.2751,-2.87602 -5.08853,-4.45898 -5.98979,-7.50603a1.07472,1.07472 0 0 0 -1.79888,-0.44517a17.34587,17.34587 0 0 0 -4.3304,6.69575a8.68385,8.68385 0 0 1 -2.72318,-5.33719a11.86797,11.86797 0 0 1 1.95899,-7.94999c0.2426,-0.37724 0.52402,-0.74963 0.82605,-1.14386c0.16618,-0.21713 0.34207,-0.44638 0.52159,-0.69262l14.38616,14.38009zm-5.07882,2.90028a13.90824,13.90824 0 0 1 -2.55457,0.42698a9.66881,9.66881 0 0 1 -5.48882,-1.22998a13.10645,13.10645 0 0 1 2.86146,-5.27776c1.0735,2.33381 2.75229,3.94346 5.18072,6.08076l0.00121,0zm-16.88615,-0.09947a20.76896,20.76896 0 0 1 -2.16763,-26.92856l8.20593,8.20593c-0.22926,0.3263 -0.46094,0.63076 -0.68777,0.92794c-0.33115,0.43304 -0.6441,0.84182 -0.9328,1.29912a13.93614,13.93614 0 0 0 -2.27922,9.34009a11.45192,11.45192 0 0 0 11.46647,9.86168c0.29355,0 0.59073,-0.01092 0.88791,-0.03396a15.10911,15.10911 0 0 0 4.85199,-1.15963a1.0638,1.0638 0 0 0 0.1213,-0.05337a13.20227,13.20227 0 0 0 4.0126,-2.73895l3.44977,3.44734a20.76896,20.76896 0 0 1 -26.92856,-2.16763z" class="a"/>
   <path stroke="null" id="svg_39" d="m57.98935,34.73981a23.00087,23.00087 0 0 0 -5.49852,-14.66272a1.07472,1.07472 0 0 0 -1.6327,1.39616a20.80292,20.80292 0 0 1 1.04924,25.72405l-4.59605,-4.59605a10.2838,10.2838 0 0 0 0.02911,-5.45849a12.66006,12.66006 0 0 0 -0.47913,-1.5769c-0.54464,-1.53444 -1.10625,-3.12104 -0.29597,-7.74014a1.07472,1.07472 0 0 0 -1.15356,-1.25545a7.58003,7.58003 0 0 0 -6.10502,3.95316a17.89051,17.89051 0 0 0 -1.4095,-5.78479c-1.36098,-2.97185 -3.73118,-5.15403 -7.68798,-7.07421a1.07472,1.07472 0 0 0 -1.54293,1.008a40.87804,40.87804 0 0 1 -0.08855,5.19285l-5.77266,-5.76659a21.01398,21.01398 0 0 1 20.70952,-2.12639a1.07472,1.07472 0 1 0 0.877,-1.96142a23.00694,23.00694 0 0 0 -23.89607,3.14773a1.07472,1.07472 0 0 0 -0.08127,1.59267l24.91377,24.91377l0,0l5.91579,5.91579a1.07472,1.07472 0 0 0 0.75934,0.31417l0.05458,0a1.07472,1.07472 0 0 0 0.77874,-0.39422a22.99359,22.99359 0 0 0 5.15282,-14.76098zm-13.77359,-5.75082a13.53706,13.53706 0 0 0 0.62227,7.29861a10.68288,10.68288 0 0 1 0.40514,1.31368a9.84591,9.84591 0 0 1 0.26079,3.1914l-5.82239,-5.82239c1.19966,-3.52861 2.52546,-5.32142 4.53297,-5.98129l0.00121,0zm-13.35875,-8.548c4.98421,2.89785 6.16446,6.40099 6.4483,12.15424l-6.79279,-6.79279a33.68375,33.68375 0 0 0 0.34328,-5.36145l0.00121,0z" class="a"/>
   <path stroke="null" id="svg_40" d="m47.21307,18.09141a1.07472,1.07472 0 1 0 0,-1.52231a1.06744,1.06744 0 0 0 0,1.52231z" class="a"/>
  </g>
 </g>
</svg>