<svg width="70" height="70" xmlns="http://www.w3.org/2000/svg">
 <!-- Created with Method Draw - http://github.com/duopixel/Method-Draw/ -->

 <g>
  <title>background</title>
  <rect fill="#fff" id="canvas_background" height="72" width="72" y="-1" x="-1"/>
  <g display="none" overflow="visible" y="0" x="0" height="100%" width="100%" id="canvasGrid">
   <rect fill="url(#gridpattern)" stroke-width="0" y="0" x="0" height="100%" width="100%"/>
  </g>
 </g>
 <g>
  <title>Layer 1</title>
  <defs>
   <style>.a{fill:#716f6e;}</style>
  </defs>
  <ellipse ry="33" rx="33" id="svg_12" cy="35" cx="35" stroke="#e10915" fill="#fff"/>
  <g stroke="null" id="svg_11">
   <g stroke="null" transform="matrix(1.0153563918873625,0,0,1.0153563918873625,-64.03346592918699,-86.58310029721666) " id="svg_4">
    <path stroke="null" id="svg_5" d="m101.86469,114.44127a0.8,0.8 0 1 0 0.8,0.8a0.8,0.8 0 0 0 -0.8,-0.8z" class="a"/>
   </g>
   <path stroke="null" id="svg_6" d="m54.91116,50.2994l-10.88157,-10.88157a16.15838,16.15838 0 0 0 2.70694,-8.98692a16.30459,16.30459 0 1 0 -16.30561,16.30459a16.1594,16.1594 0 0 0 8.98692,-2.70592l3.00749,3.00749l0,0l7.87206,7.87206a3.26031,3.26031 0 1 0 4.61073,-4.61073l0.00305,0.00102zm-15.87611,-7.98882l0,0a14.68916,14.68916 0 1 1 3.27656,-3.27656a14.74501,14.74501 0 0 1 -3.27656,3.27656zm1.70986,0.73918a16.35942,16.35942 0 0 0 2.30486,-2.30486l2.31298,2.31298a19.78828,19.78828 0 0 1 -2.30486,2.30486l-2.31298,-2.31298zm13.01281,10.70795a1.62457,1.62457 0 0 1 -2.30486,0l-7.23949,-7.24152a21.42402,21.42402 0 0 0 2.30486,-2.30486l7.23949,7.23949a1.62457,1.62457 0 0 1 0,2.30486l0,0.00203z" class="a"/>
   <g stroke="null" transform="matrix(1.0153563918873625,0,0,1.0153563918873625,-64.03346592918699,-86.58310029721666) " id="svg_7">
    <path stroke="null" id="svg_8" d="m93.03569,102.39827a12.846,12.846 0 1 0 12.847,12.846a12.861,12.861 0 0 0 -12.847,-12.846zm0,24.087a11.241,11.241 0 1 1 11.241,-11.241a11.253,11.253 0 0 1 -11.241,11.241z" class="a"/>
   </g>
   <g stroke="null" transform="matrix(1.0153563918873625,0,0,1.0153563918873625,-64.03346592918699,-86.58310029721666) " id="svg_9">
    <path stroke="null" id="svg_10" d="m102.03269,111.79727a9.65,9.65 0 0 0 -9,-6.188a0.8,0.8 0 0 0 0,1.606a8.084,8.084 0 0 1 7.5,5.158a0.8,0.8 0 1 0 1.5,-0.576z" class="a"/>
   </g>
  </g>
 </g>
</svg>