<svg xmlns="http://www.w3.org/2000/svg" width="41.11" height="41.109" viewBox="0 0 41.11 41.109"><defs><style>.a{fill:#716f6e;}</style></defs><g transform="translate(18.665 16.734)"><path class="a" d="M236.143,211.9a.6.6,0,0,0-.5-.265h-1.685l.957-2.392a.6.6,0,0,0-1.118-.447l-1.287,3.218a.6.6,0,0,0,.559.826h1.685l-.957,2.392a.6.6,0,1,0,1.118.447l1.287-3.218A.6.6,0,0,0,236.143,211.9Z" transform="translate(-232.467 -208.416)"/></g><g transform="translate(0 0)"><path class="a" d="M37.792,3.451A11.474,11.474,0,0,0,29.764,0a11.291,11.291,0,0,0-8.148,3.311,12.034,12.034,0,0,0-3.592,8.521v2.326H16.052a1.892,1.892,0,0,0-1.889,1.889v9.011a1.892,1.892,0,0,0,1.889,1.889h1.972v2.616a6.493,6.493,0,0,1-2.122,4.79,6.422,6.422,0,0,1-4.982,1.658A6.638,6.638,0,0,1,5.069,29.36a.6.6,0,1,0-1.2,0,8.031,8.031,0,0,0,1.971,5.275,7.515,7.515,0,0,0,4.972,2.579q.377.036.75.035a7.594,7.594,0,0,0,5.156-2,7.7,7.7,0,0,0,2.515-5.681V26.951h2.657v2.326a10.822,10.822,0,0,1-3.232,7.662,10.1,10.1,0,0,1-7.283,2.965A10.352,10.352,0,0,1,1.207,29.567V21.2a.041.041,0,0,1,.041-.041H3.823a.041.041,0,0,1,.041.041v5.551a.6.6,0,1,0,1.2,0V21.2a1.247,1.247,0,0,0-1.246-1.246H3.138v-3.26a.6.6,0,0,0-1.2,0v3.26H1.249A1.247,1.247,0,0,0,0,21.2v8.367A11.557,11.557,0,0,0,11.351,41.109l.188,0A11.3,11.3,0,0,0,19.5,37.8a12.034,12.034,0,0,0,3.592-8.521V26.951h1.972a1.892,1.892,0,0,0,1.889-1.889V16.051a1.892,1.892,0,0,0-1.889-1.889H23.091V11.546a6.493,6.493,0,0,1,2.122-4.79A6.423,6.423,0,0,1,30.195,5.1a6.638,6.638,0,0,1,5.852,6.656.6.6,0,1,0,1.2,0,8.031,8.031,0,0,0-1.971-5.275A7.515,7.515,0,0,0,30.307,3.9,7.612,7.612,0,0,0,24.4,5.865a7.7,7.7,0,0,0-2.515,5.681v2.616H19.229V11.835a10.822,10.822,0,0,1,3.232-7.662,10.1,10.1,0,0,1,7.283-2.965A10.352,10.352,0,0,1,39.908,11.546v8.367a.041.041,0,0,1-.041.041H37.292a.041.041,0,0,1-.041-.041V14.361a.6.6,0,0,0-1.2,0v5.551a1.247,1.247,0,0,0,1.246,1.246h.685v3.26a.6.6,0,0,0,1.2,0v-3.26h.685a1.247,1.247,0,0,0,1.246-1.246V11.546A11.472,11.472,0,0,0,37.792,3.451ZM25.063,15.366a.686.686,0,0,1,.685.685v9.011a.686.686,0,0,1-.685.685H16.052a.686.686,0,0,1-.685-.685V16.051a.686.686,0,0,1,.685-.685Z" transform="translate(-0.003 -0.002)"/></g><g transform="translate(0 12.872)"><path class="a" d="M1.785,161.942l-.644-1.287a.6.6,0,1,0-1.077.539l.644,1.287a.6.6,0,0,0,1.077-.539Z" transform="translate(0 -160.322)"/></g><g transform="translate(3.218 12.872)"><path class="a" d="M41.595,160.386a.6.6,0,0,0-.808.269l-.644,1.287a.6.6,0,1,0,1.077.539l.644-1.287A.6.6,0,0,0,41.595,160.386Z" transform="translate(-40.08 -160.322)"/></g><g transform="translate(39.261 25.745)"><path class="a" d="M490.765,322.263l-.644-1.287a.6.6,0,0,0-1.077.539l.644,1.287a.6.6,0,0,0,1.077-.539Z" transform="translate(-488.98 -320.643)"/></g><g transform="translate(36.043 25.745)"><path class="a" d="M450.416,320.707a.6.6,0,0,0-.808.269l-.644,1.287a.6.6,0,1,0,1.077.539l.644-1.287A.6.6,0,0,0,450.416,320.707Z" transform="translate(-448.9 -320.643)"/></g></svg>